<svg xmlns="http://www.w3.org/2000/svg" xmlns:xlink="http://www.w3.org/1999/xlink" width="400" zoomAndPan="magnify" viewBox="0 0 300 112.499997" height="150" preserveAspectRatio="xMidYMid meet" version="1.0"><defs><g/><clipPath id="33325931d5"><path d="M 215.597656 5.953125 L 270.472656 5.953125 L 270.472656 48.371094 L 215.597656 48.371094 Z M 215.597656 5.953125 " clip-rule="nonzero"/></clipPath><clipPath id="383e35d7cd"><path d="M 240.464844 26.1875 L 254.359375 26.1875 L 254.359375 91.800781 L 240.464844 91.800781 Z M 240.464844 26.1875 " clip-rule="nonzero"/></clipPath></defs><g fill="#000000" fill-opacity="1"><g transform="translate(6.37175, 91.339189)"><g><path d="M 5.453125 0 L 5.453125 -45.078125 L 20.6875 -45.078125 C 24.207031 -45.078125 27.097656 -44.476562 29.359375 -43.28125 C 31.617188 -42.082031 33.289062 -40.441406 34.375 -38.359375 C 35.46875 -36.273438 36.015625 -33.90625 36.015625 -31.25 C 36.015625 -28.257812 35.328125 -25.648438 33.953125 -23.421875 C 32.578125 -21.203125 30.453125 -19.601562 27.578125 -18.625 L 37.765625 0 L 31.4375 0 L 21.921875 -17.625 C 21.554688 -17.613281 21.175781 -17.609375 20.78125 -17.609375 L 10.921875 -17.609375 L 10.921875 0 Z M 10.921875 -22.546875 L 20.609375 -22.546875 C 24.210938 -22.546875 26.785156 -23.320312 28.328125 -24.875 C 29.867188 -26.425781 30.640625 -28.550781 30.640625 -31.25 C 30.640625 -33.96875 29.863281 -36.144531 28.3125 -37.78125 C 26.769531 -39.414062 24.171875 -40.234375 20.515625 -40.234375 L 10.921875 -40.234375 Z M 10.921875 -22.546875 "/></g></g></g><g fill="#000000" fill-opacity="1"><g transform="translate(45.986252, 91.339189)"><g><path d="M 18.9375 0.703125 C 15.675781 0.703125 12.867188 -0.015625 10.515625 -1.453125 C 8.160156 -2.898438 6.347656 -4.925781 5.078125 -7.53125 C 3.804688 -10.144531 3.171875 -13.179688 3.171875 -16.640625 C 3.171875 -20.097656 3.804688 -23.148438 5.078125 -25.796875 C 6.347656 -28.453125 8.125 -30.523438 10.40625 -32.015625 C 12.6875 -33.503906 15.351562 -34.25 18.40625 -34.25 C 20.164062 -34.25 21.898438 -33.953125 23.609375 -33.359375 C 25.328125 -32.773438 26.890625 -31.828125 28.296875 -30.515625 C 29.710938 -29.203125 30.835938 -27.46875 31.671875 -25.3125 C 32.503906 -23.15625 32.921875 -20.5 32.921875 -17.34375 L 32.921875 -15.140625 L 8.390625 -15.140625 C 8.503906 -11.535156 9.523438 -8.769531 11.453125 -6.84375 C 13.378906 -4.925781 15.875 -3.96875 18.9375 -3.96875 C 20.96875 -3.96875 22.71875 -4.40625 24.1875 -5.28125 C 25.65625 -6.164062 26.71875 -7.488281 27.375 -9.25 L 32.40625 -7.84375 C 31.613281 -5.28125 30.023438 -3.210938 27.640625 -1.640625 C 25.265625 -0.078125 22.363281 0.703125 18.9375 0.703125 Z M 8.390625 -19.640625 L 27.640625 -19.640625 C 27.640625 -22.492188 26.800781 -24.863281 25.125 -26.75 C 23.457031 -28.632812 21.21875 -29.578125 18.40625 -29.578125 C 16.425781 -29.578125 14.707031 -29.113281 13.25 -28.1875 C 11.800781 -27.269531 10.65625 -26.050781 9.8125 -24.53125 C 8.976562 -23.007812 8.503906 -21.378906 8.390625 -19.640625 Z M 8.390625 -19.640625 "/></g></g></g><g fill="#000000" fill-opacity="1"><g transform="translate(82.079471, 91.339189)"><g><path d="M 4.75 0 L 4.75 -33.8125 L 9.953125 -33.8125 L 9.953125 0 Z M 7.390625 -39.4375 C 6.378906 -39.4375 5.507812 -39.78125 4.78125 -40.46875 C 4.0625 -41.164062 3.703125 -42 3.703125 -42.96875 C 3.703125 -43.9375 4.0625 -44.765625 4.78125 -45.453125 C 5.507812 -46.140625 6.378906 -46.484375 7.390625 -46.484375 C 8.410156 -46.484375 9.28125 -46.140625 10 -45.453125 C 10.726562 -44.765625 11.09375 -43.9375 11.09375 -42.96875 C 11.09375 -42 10.726562 -41.164062 10 -40.46875 C 9.28125 -39.78125 8.410156 -39.4375 7.390625 -39.4375 Z M 7.390625 -39.4375 "/></g></g></g><g fill="#000000" fill-opacity="1"><g transform="translate(96.780854, 91.339189)"><g><path d="M 28.703125 -26.234375 L 24.03125 -24.921875 C 23.582031 -26.085938 22.820312 -27.1875 21.75 -28.21875 C 20.675781 -29.25 19.003906 -29.765625 16.734375 -29.765625 C 14.660156 -29.765625 12.9375 -29.289062 11.5625 -28.34375 C 10.195312 -27.394531 9.515625 -26.191406 9.515625 -24.734375 C 9.515625 -23.441406 9.984375 -22.421875 10.921875 -21.671875 C 11.859375 -20.929688 13.320312 -20.3125 15.3125 -19.8125 L 20.34375 -18.578125 C 26.320312 -17.109375 29.3125 -14.054688 29.3125 -9.421875 C 29.3125 -7.484375 28.757812 -5.75 27.65625 -4.21875 C 26.550781 -2.695312 25.003906 -1.492188 23.015625 -0.609375 C 21.035156 0.265625 18.734375 0.703125 16.109375 0.703125 C 12.660156 0.703125 9.804688 -0.0390625 7.546875 -1.53125 C 5.285156 -3.03125 3.851562 -5.21875 3.25 -8.09375 L 8.1875 -9.328125 C 9.113281 -5.691406 11.726562 -3.875 16.03125 -3.875 C 18.445312 -3.875 20.367188 -4.390625 21.796875 -5.421875 C 23.234375 -6.460938 23.953125 -7.707031 23.953125 -9.15625 C 23.953125 -11.550781 22.28125 -13.132812 18.9375 -13.90625 L 13.296875 -15.234375 C 10.203125 -15.960938 7.929688 -17.101562 6.484375 -18.65625 C 5.035156 -20.207031 4.3125 -22.148438 4.3125 -24.484375 C 4.3125 -26.390625 4.847656 -28.070312 5.921875 -29.53125 C 7.003906 -31 8.476562 -32.148438 10.34375 -32.984375 C 12.21875 -33.828125 14.347656 -34.25 16.734375 -34.25 C 20.078125 -34.25 22.707031 -33.515625 24.625 -32.046875 C 26.539062 -30.578125 27.898438 -28.640625 28.703125 -26.234375 Z M 28.703125 -26.234375 "/></g></g></g><g fill="#000000" fill-opacity="1"><g transform="translate(129.176714, 91.339189)"><g><path d="M 5.453125 0 L 5.453125 -45.078125 L 32.484375 -45.078125 L 32.484375 -40.234375 L 10.921875 -40.234375 L 10.921875 -25 L 30.46875 -25 L 30.46875 -20.15625 L 10.921875 -20.15625 L 10.921875 0 Z M 5.453125 0 "/></g></g></g><g fill="#000000" fill-opacity="1"><g transform="translate(165.534022, 91.339189)"><g><path d="M 18.9375 0.703125 C 15.675781 0.703125 12.867188 -0.015625 10.515625 -1.453125 C 8.160156 -2.898438 6.347656 -4.925781 5.078125 -7.53125 C 3.804688 -10.144531 3.171875 -13.179688 3.171875 -16.640625 C 3.171875 -20.097656 3.804688 -23.148438 5.078125 -25.796875 C 6.347656 -28.453125 8.125 -30.523438 10.40625 -32.015625 C 12.6875 -33.503906 15.351562 -34.25 18.40625 -34.25 C 20.164062 -34.25 21.898438 -33.953125 23.609375 -33.359375 C 25.328125 -32.773438 26.890625 -31.828125 28.296875 -30.515625 C 29.710938 -29.203125 30.835938 -27.46875 31.671875 -25.3125 C 32.503906 -23.15625 32.921875 -20.5 32.921875 -17.34375 L 32.921875 -15.140625 L 8.390625 -15.140625 C 8.503906 -11.535156 9.523438 -8.769531 11.453125 -6.84375 C 13.378906 -4.925781 15.875 -3.96875 18.9375 -3.96875 C 20.96875 -3.96875 22.71875 -4.40625 24.1875 -5.28125 C 25.65625 -6.164062 26.71875 -7.488281 27.375 -9.25 L 32.40625 -7.84375 C 31.613281 -5.28125 30.023438 -3.210938 27.640625 -1.640625 C 25.265625 -0.078125 22.363281 0.703125 18.9375 0.703125 Z M 8.390625 -19.640625 L 27.640625 -19.640625 C 27.640625 -22.492188 26.800781 -24.863281 25.125 -26.75 C 23.457031 -28.632812 21.21875 -29.578125 18.40625 -29.578125 C 16.425781 -29.578125 14.707031 -29.113281 13.25 -28.1875 C 11.800781 -27.269531 10.65625 -26.050781 9.8125 -24.53125 C 8.976562 -23.007812 8.503906 -21.378906 8.390625 -19.640625 Z M 8.390625 -19.640625 "/></g></g></g><g fill="#000000" fill-opacity="1"><g transform="translate(201.627241, 91.339189)"><g><path d="M 18.9375 0.703125 C 15.675781 0.703125 12.867188 -0.015625 10.515625 -1.453125 C 8.160156 -2.898438 6.347656 -4.925781 5.078125 -7.53125 C 3.804688 -10.144531 3.171875 -13.179688 3.171875 -16.640625 C 3.171875 -20.097656 3.804688 -23.148438 5.078125 -25.796875 C 6.347656 -28.453125 8.125 -30.523438 10.40625 -32.015625 C 12.6875 -33.503906 15.351562 -34.25 18.40625 -34.25 C 20.164062 -34.25 21.898438 -33.953125 23.609375 -33.359375 C 25.328125 -32.773438 26.890625 -31.828125 28.296875 -30.515625 C 29.710938 -29.203125 30.835938 -27.46875 31.671875 -25.3125 C 32.503906 -23.15625 32.921875 -20.5 32.921875 -17.34375 L 32.921875 -15.140625 L 8.390625 -15.140625 C 8.503906 -11.535156 9.523438 -8.769531 11.453125 -6.84375 C 13.378906 -4.925781 15.875 -3.96875 18.9375 -3.96875 C 20.96875 -3.96875 22.71875 -4.40625 24.1875 -5.28125 C 25.65625 -6.164062 26.71875 -7.488281 27.375 -9.25 L 32.40625 -7.84375 C 31.613281 -5.28125 30.023438 -3.210938 27.640625 -1.640625 C 25.265625 -0.078125 22.363281 0.703125 18.9375 0.703125 Z M 8.390625 -19.640625 L 27.640625 -19.640625 C 27.640625 -22.492188 26.800781 -24.863281 25.125 -26.75 C 23.457031 -28.632812 21.21875 -29.578125 18.40625 -29.578125 C 16.425781 -29.578125 14.707031 -29.113281 13.25 -28.1875 C 11.800781 -27.269531 10.65625 -26.050781 9.8125 -24.53125 C 8.976562 -23.007812 8.503906 -21.378906 8.390625 -19.640625 Z M 8.390625 -19.640625 "/></g></g></g><g fill="#000000" fill-opacity="1"><g transform="translate(237.720471, 91.339189)"><g/></g></g><g fill="#000000" fill-opacity="1"><g transform="translate(255.150859, 91.339189)"><g><path d="M 17.515625 0.703125 C 14.703125 0.703125 12.21875 -0.0078125 10.0625 -1.4375 C 7.90625 -2.875 6.21875 -4.898438 5 -7.515625 C 3.78125 -10.140625 3.171875 -13.238281 3.171875 -16.8125 C 3.171875 -20.363281 3.78125 -23.445312 5 -26.0625 C 6.21875 -28.675781 7.910156 -30.691406 10.078125 -32.109375 C 12.253906 -33.535156 14.765625 -34.25 17.609375 -34.25 C 19.804688 -34.25 21.546875 -33.882812 22.828125 -33.15625 C 24.117188 -32.4375 25.101562 -31.613281 25.78125 -30.6875 C 26.46875 -29.769531 27 -29.019531 27.375 -28.4375 L 27.828125 -28.4375 L 27.828125 -45.078125 L 33.015625 -45.078125 L 33.015625 0 L 28 0 L 28 -5.1875 L 27.375 -5.1875 C 27 -4.570312 26.457031 -3.796875 25.75 -2.859375 C 25.050781 -1.929688 24.046875 -1.101562 22.734375 -0.375 C 21.429688 0.34375 19.691406 0.703125 17.515625 0.703125 Z M 18.21875 -3.96875 C 21.34375 -3.96875 23.738281 -5.164062 25.40625 -7.5625 C 27.070312 -9.957031 27.90625 -13.070312 27.90625 -16.90625 C 27.90625 -20.6875 27.082031 -23.742188 25.4375 -26.078125 C 23.800781 -28.410156 21.394531 -29.578125 18.21875 -29.578125 C 16.019531 -29.578125 14.191406 -29.015625 12.734375 -27.890625 C 11.273438 -26.773438 10.179688 -25.257812 9.453125 -23.34375 C 8.722656 -21.425781 8.359375 -19.28125 8.359375 -16.90625 C 8.359375 -14.5 8.726562 -12.316406 9.46875 -10.359375 C 10.21875 -8.398438 11.320312 -6.84375 12.78125 -5.6875 C 14.238281 -4.539062 16.050781 -3.96875 18.21875 -3.96875 Z M 18.21875 -3.96875 "/></g></g></g><path fill="#000000" d="M 245.390625 24.816406 C 245.390625 26.632812 243.917969 28.105469 242.101562 28.105469 C 240.285156 28.105469 238.808594 26.632812 238.808594 24.816406 C 238.808594 23 240.285156 21.523438 242.101562 21.523438 C 243.917969 21.523438 245.390625 23 245.390625 24.816406 " fill-opacity="1" fill-rule="nonzero"/><g clip-path="url(#33325931d5)"><path fill="#000000" d="M 249.496094 17.308594 C 249.496094 17.308594 260.832031 11.824219 269.605469 15.355469 C 269.605469 15.355469 261.316406 4.023438 247.300781 13.527344 C 247.300781 13.527344 253.273438 6.703125 262.050781 7.191406 C 262.050781 7.191406 250.59375 2.4375 243.035156 11.578125 C 235.476562 2.4375 224.019531 7.191406 224.019531 7.191406 C 232.796875 6.703125 238.769531 13.527344 238.769531 13.527344 C 224.753906 4.023438 216.464844 15.355469 216.464844 15.355469 C 225.238281 11.824219 236.574219 17.308594 236.574219 17.308594 C 214.390625 13.894531 215.609375 35.710938 215.609375 35.710938 C 219.511719 26.082031 231.210938 23.28125 231.210938 23.28125 C 216.953125 35.101562 230.847656 48.144531 230.847656 48.144531 C 227.3125 32.542969 234.867188 26.082031 234.867188 26.082031 C 232.1875 31.566406 234.867188 39.003906 234.867188 39.003906 C 234.867188 29.128906 243.035156 23.28125 243.035156 23.28125 C 243.035156 23.28125 251.203125 29.128906 251.203125 39.003906 C 251.203125 39.003906 253.882812 31.566406 251.203125 26.082031 C 251.203125 26.082031 258.757812 32.542969 255.222656 48.144531 C 255.222656 48.144531 269.117188 35.101562 254.859375 23.28125 C 254.859375 23.28125 266.558594 26.082031 270.460938 35.710938 C 270.460938 35.710938 271.679688 13.894531 249.496094 17.308594 " fill-opacity="1" fill-rule="nonzero"/></g><g clip-path="url(#383e35d7cd)"><path fill="#000000" d="M 254.300781 91.800781 L 248.164062 91.800781 C 247.953125 91.15625 247.734375 90.46875 247.503906 89.738281 C 246.976562 88.039062 246.414062 86.113281 245.847656 84.007812 C 245.289062 81.898438 244.710938 79.609375 244.179688 77.171875 C 243.628906 74.734375 243.144531 72.152344 242.667969 69.472656 C 242.234375 66.792969 241.804688 64.019531 241.488281 61.183594 C 241.410156 60.476562 241.320312 59.765625 241.25 59.054688 C 241.183594 58.339844 241.121094 57.621094 241.054688 56.90625 L 240.957031 55.828125 L 240.878906 54.75 C 240.832031 54.027344 240.785156 53.304688 240.734375 52.582031 C 240.648438 51.144531 240.605469 49.695312 240.542969 48.257812 C 240.523438 46.816406 240.488281 45.386719 240.488281 43.964844 C 240.5 43.257812 240.511719 42.546875 240.519531 41.84375 C 240.53125 41.140625 240.527344 40.441406 240.566406 39.746094 C 240.597656 39.050781 240.628906 38.359375 240.660156 37.675781 C 240.6875 36.988281 240.710938 36.308594 240.769531 35.632812 C 240.820312 34.957031 240.871094 34.289062 240.917969 33.628906 C 240.972656 32.964844 241.011719 32.3125 241.089844 31.667969 C 241.222656 30.433594 241.339844 29.222656 241.484375 28.046875 C 241.488281 27.992188 241.496094 27.9375 241.503906 27.882812 C 241.558594 27.480469 241.617188 27.082031 241.671875 26.683594 C 242.140625 26.617188 242.59375 26.503906 243.03125 26.355469 C 242.996094 26.898438 242.953125 27.449219 242.910156 28.007812 L 242.910156 28.011719 C 242.839844 29.234375 242.804688 30.488281 242.75 31.769531 C 242.714844 32.410156 242.71875 33.058594 242.714844 33.714844 C 242.707031 34.367188 242.703125 35.027344 242.699219 35.695312 C 242.683594 36.359375 242.703125 37.03125 242.722656 37.707031 C 242.734375 38.382812 242.753906 39.0625 242.769531 39.746094 C 242.773438 40.429688 242.824219 41.117188 242.855469 41.808594 C 242.894531 42.5 242.929688 43.195312 242.964844 43.890625 C 243.058594 45.28125 243.1875 46.683594 243.300781 48.089844 C 243.457031 49.492188 243.589844 50.902344 243.769531 52.308594 C 243.863281 53.007812 243.960938 53.710938 244.050781 54.410156 L 244.195312 55.460938 L 244.363281 56.507812 C 244.472656 57.199219 244.582031 57.894531 244.695312 58.585938 C 244.808594 59.28125 244.945312 59.964844 245.066406 60.648438 C 245.554688 63.390625 246.152344 66.0625 246.75 68.640625 C 247.386719 71.210938 248.023438 73.6875 248.714844 76.007812 C 249.386719 78.335938 250.09375 80.515625 250.765625 82.511719 C 251.449219 84.511719 252.113281 86.328125 252.726562 87.921875 C 253.308594 89.414062 253.835938 90.722656 254.300781 91.800781 " fill-opacity="1" fill-rule="nonzero"/></g></svg>