<svg xmlns="http://www.w3.org/2000/svg" xmlns:xlink="http://www.w3.org/1999/xlink" width="400" zoomAndPan="magnify" viewBox="0 0 300 112.499997" height="150" preserveAspectRatio="xMidYMid meet" version="1.0"><defs><g/><clipPath id="ffdc775acf"><path d="M 218.585938 5.207031 L 273.457031 5.207031 L 273.457031 47.625 L 218.585938 47.625 Z M 218.585938 5.207031 " clip-rule="nonzero"/></clipPath><clipPath id="b954c5a84f"><path d="M 243.449219 25.441406 L 257.34375 25.441406 L 257.34375 91.054688 L 243.449219 91.054688 Z M 243.449219 25.441406 " clip-rule="nonzero"/></clipPath></defs><g fill="#000000" fill-opacity="1"><g transform="translate(1.751659, 89.845826)"><g><path d="M 7.4375 -43.390625 L 7.4375 0 L 13.078125 0 L 13.078125 -19.15625 L 15.8125 -19.15625 C 16.96875 -19.15625 17.925781 -19.050781 18.6875 -18.84375 C 19.445312 -18.632812 20.132812 -18.28125 20.75 -17.78125 C 21.375 -17.289062 21.957031 -16.648438 22.5 -15.859375 C 23.039062 -15.078125 23.679688 -14.109375 24.421875 -12.953125 L 29.3125 -5.703125 C 29.9375 -4.753906 30.546875 -3.882812 31.140625 -3.09375 C 31.742188 -2.3125 32.394531 -1.640625 33.09375 -1.078125 C 33.800781 -0.523438 34.597656 -0.0820312 35.484375 0.25 C 36.367188 0.582031 37.429688 0.75 38.671875 0.75 C 39.585938 0.75 40.332031 0.707031 40.90625 0.625 C 41.488281 0.539062 42.066406 0.332031 42.640625 0 L 42.640625 -2.296875 C 42.429688 -2.253906 42.222656 -2.222656 42.015625 -2.203125 C 41.816406 -2.179688 41.613281 -2.171875 41.40625 -2.171875 C 40.539062 -2.171875 39.773438 -2.289062 39.109375 -2.53125 C 38.453125 -2.78125 37.832031 -3.144531 37.25 -3.625 C 36.675781 -4.101562 36.117188 -4.679688 35.578125 -5.359375 C 35.035156 -6.046875 34.476562 -6.820312 33.90625 -7.6875 C 32.164062 -10.207031 30.820312 -12.21875 29.875 -13.71875 C 28.925781 -15.226562 28.171875 -16.394531 27.609375 -17.21875 C 27.054688 -18.050781 26.601562 -18.65625 26.25 -19.03125 C 25.894531 -19.40625 25.472656 -19.710938 24.984375 -19.953125 L 24.359375 -20.265625 L 24.359375 -20.515625 C 26.335938 -20.640625 28.039062 -21.070312 29.46875 -21.8125 C 30.894531 -22.5625 32.0625 -23.492188 32.96875 -24.609375 C 33.882812 -25.722656 34.546875 -26.929688 34.953125 -28.234375 C 35.367188 -29.535156 35.578125 -30.804688 35.578125 -32.046875 C 35.578125 -33.160156 35.359375 -34.378906 34.921875 -35.703125 C 34.492188 -37.023438 33.75 -38.253906 32.6875 -39.390625 C 31.632812 -40.523438 30.195312 -41.472656 28.375 -42.234375 C 26.5625 -43.003906 24.273438 -43.390625 21.515625 -43.390625 Z M 13.078125 -40.65625 L 19.34375 -40.65625 C 20.90625 -40.65625 22.316406 -40.425781 23.578125 -39.96875 C 24.835938 -39.519531 25.921875 -38.890625 26.828125 -38.078125 C 27.742188 -37.273438 28.4375 -36.316406 28.90625 -35.203125 C 29.382812 -34.085938 29.625 -32.867188 29.625 -31.546875 C 29.625 -30.429688 29.40625 -29.304688 28.96875 -28.171875 C 28.539062 -27.035156 27.890625 -26 27.015625 -25.0625 C 26.148438 -24.132812 25.085938 -23.378906 23.828125 -22.796875 C 22.566406 -22.222656 21.113281 -21.9375 19.46875 -21.9375 L 13.078125 -21.9375 Z M 13.078125 -40.65625 "/></g></g></g><g fill="#000000" fill-opacity="1"><g transform="translate(46.249362, 89.845826)"><g><path d="M 32.484375 -14.125 L 32.484375 -15.4375 C 32.484375 -18.207031 32.085938 -20.601562 31.296875 -22.625 C 30.515625 -24.644531 29.453125 -26.316406 28.109375 -27.640625 C 26.765625 -28.960938 25.203125 -29.953125 23.421875 -30.609375 C 21.648438 -31.273438 19.773438 -31.609375 17.796875 -31.609375 C 15.679688 -31.609375 13.734375 -31.242188 11.953125 -30.515625 C 10.179688 -29.796875 8.632812 -28.742188 7.3125 -27.359375 C 5.988281 -25.984375 4.953125 -24.3125 4.203125 -22.34375 C 3.460938 -20.382812 3.09375 -18.164062 3.09375 -15.6875 C 3.09375 -13.613281 3.410156 -11.59375 4.046875 -9.625 C 4.691406 -7.664062 5.664062 -5.910156 6.96875 -4.359375 C 8.269531 -2.816406 9.921875 -1.578125 11.921875 -0.640625 C 13.929688 0.285156 16.300781 0.75 19.03125 0.75 C 21.675781 0.75 24.113281 0.285156 26.34375 -0.640625 C 28.570312 -1.578125 30.515625 -2.914062 32.171875 -4.65625 L 30.1875 -6.625 C 29.320312 -5.882812 28.503906 -5.203125 27.734375 -4.578125 C 26.972656 -3.960938 26.195312 -3.445312 25.40625 -3.03125 C 24.625 -2.625 23.804688 -2.304688 22.953125 -2.078125 C 22.109375 -1.847656 21.171875 -1.734375 20.140625 -1.734375 C 18.984375 -1.734375 17.753906 -1.910156 16.453125 -2.265625 C 15.148438 -2.617188 13.941406 -3.25 12.828125 -4.15625 C 11.710938 -5.0625 10.78125 -6.316406 10.03125 -7.921875 C 9.289062 -9.535156 8.921875 -11.601562 8.921875 -14.125 Z M 8.921875 -16.609375 C 8.921875 -18.265625 9.097656 -19.863281 9.453125 -21.40625 C 9.804688 -22.957031 10.34375 -24.332031 11.0625 -25.53125 C 11.789062 -26.726562 12.710938 -27.6875 13.828125 -28.40625 C 14.941406 -29.132812 16.265625 -29.5 17.796875 -29.5 C 20.722656 -29.5 23.003906 -28.351562 24.640625 -26.0625 C 26.273438 -23.769531 27.09375 -20.617188 27.09375 -16.609375 Z M 8.921875 -16.609375 "/></g></g></g><g fill="#000000" fill-opacity="1"><g transform="translate(81.822731, 89.845826)"><g><path d="M 6.9375 -30.984375 L 6.9375 0 L 12.203125 0 L 12.203125 -30.984375 Z M 6.203125 -40.78125 C 6.203125 -39.875 6.53125 -39.085938 7.1875 -38.421875 C 7.851562 -37.765625 8.640625 -37.4375 9.546875 -37.4375 C 10.453125 -37.4375 11.234375 -37.765625 11.890625 -38.421875 C 12.554688 -39.085938 12.890625 -39.875 12.890625 -40.78125 C 12.890625 -41.695312 12.554688 -42.484375 11.890625 -43.140625 C 11.234375 -43.804688 10.453125 -44.140625 9.546875 -44.140625 C 8.640625 -44.140625 7.851562 -43.804688 7.1875 -43.140625 C 6.53125 -42.484375 6.203125 -41.695312 6.203125 -40.78125 Z M 6.203125 -40.78125 "/></g></g></g><g fill="#000000" fill-opacity="1"><g transform="translate(100.910879, 89.845826)"><g><path d="M 24.734375 -23.921875 C 24.734375 -25.035156 24.441406 -26.066406 23.859375 -27.015625 C 23.285156 -27.972656 22.488281 -28.789062 21.46875 -29.46875 C 20.457031 -30.15625 19.28125 -30.691406 17.9375 -31.078125 C 16.601562 -31.472656 15.171875 -31.671875 13.640625 -31.671875 C 12.191406 -31.671875 10.835938 -31.484375 9.578125 -31.109375 C 8.316406 -30.742188 7.21875 -30.1875 6.28125 -29.4375 C 5.351562 -28.695312 4.617188 -27.78125 4.078125 -26.6875 C 3.546875 -25.59375 3.28125 -24.320312 3.28125 -22.875 C 3.28125 -20.882812 3.734375 -19.3125 4.640625 -18.15625 C 5.554688 -17 6.695312 -16.066406 8.0625 -15.359375 C 9.425781 -14.660156 10.898438 -14.09375 12.484375 -13.65625 C 14.078125 -13.226562 15.554688 -12.753906 16.921875 -12.234375 C 18.285156 -11.722656 19.421875 -11.070312 20.328125 -10.28125 C 21.234375 -9.5 21.6875 -8.425781 21.6875 -7.0625 C 21.6875 -6.488281 21.59375 -5.890625 21.40625 -5.265625 C 21.226562 -4.648438 20.890625 -4.082031 20.390625 -3.5625 C 19.898438 -3.050781 19.21875 -2.617188 18.34375 -2.265625 C 17.476562 -1.910156 16.382812 -1.734375 15.0625 -1.734375 C 13.40625 -1.734375 12.007812 -1.988281 10.875 -2.5 C 9.738281 -3.019531 8.804688 -3.640625 8.078125 -4.359375 C 7.359375 -5.085938 6.84375 -5.820312 6.53125 -6.5625 C 6.226562 -7.3125 6.078125 -7.9375 6.078125 -8.4375 L 2.046875 -8.4375 C 2.046875 -7.269531 2.3125 -6.140625 2.84375 -5.046875 C 3.382812 -3.953125 4.203125 -2.972656 5.296875 -2.109375 C 6.390625 -1.242188 7.734375 -0.550781 9.328125 -0.03125 C 10.921875 0.488281 12.769531 0.75 14.875 0.75 C 18.675781 0.75 21.535156 -0.0859375 23.453125 -1.765625 C 25.378906 -3.441406 26.34375 -5.644531 26.34375 -8.375 C 26.34375 -10.351562 25.875 -11.941406 24.9375 -13.140625 C 24.007812 -14.335938 22.84375 -15.296875 21.4375 -16.015625 C 20.039062 -16.742188 18.523438 -17.332031 16.890625 -17.78125 C 15.253906 -18.238281 13.734375 -18.710938 12.328125 -19.203125 C 10.929688 -19.703125 9.765625 -20.300781 8.828125 -21 C 7.898438 -21.707031 7.4375 -22.703125 7.4375 -23.984375 C 7.4375 -24.523438 7.539062 -25.09375 7.75 -25.6875 C 7.957031 -26.289062 8.304688 -26.847656 8.796875 -27.359375 C 9.296875 -27.878906 9.957031 -28.3125 10.78125 -28.65625 C 11.613281 -29.007812 12.648438 -29.1875 13.890625 -29.1875 C 15.128906 -29.1875 16.203125 -29.007812 17.109375 -28.65625 C 18.015625 -28.3125 18.773438 -27.878906 19.390625 -27.359375 C 20.015625 -26.847656 20.472656 -26.28125 20.765625 -25.65625 C 21.054688 -25.039062 21.203125 -24.460938 21.203125 -23.921875 Z M 24.734375 -23.921875 "/></g></g></g><g fill="#000000" fill-opacity="1"><g transform="translate(130.65865, 89.845826)"><g><path d="M 7.4375 -43.390625 L 7.4375 0 L 13.078125 0 L 13.078125 -21.578125 L 32.296875 -21.578125 L 32.296875 -24.421875 L 13.078125 -24.421875 L 13.078125 -39.984375 L 35.453125 -39.984375 L 35.453125 -43.390625 Z M 7.4375 -43.390625 "/></g></g></g><g fill="#000000" fill-opacity="1"><g transform="translate(167.967311, 89.845826)"><g><path d="M 32.484375 -14.125 L 32.484375 -15.4375 C 32.484375 -18.207031 32.085938 -20.601562 31.296875 -22.625 C 30.515625 -24.644531 29.453125 -26.316406 28.109375 -27.640625 C 26.765625 -28.960938 25.203125 -29.953125 23.421875 -30.609375 C 21.648438 -31.273438 19.773438 -31.609375 17.796875 -31.609375 C 15.679688 -31.609375 13.734375 -31.242188 11.953125 -30.515625 C 10.179688 -29.796875 8.632812 -28.742188 7.3125 -27.359375 C 5.988281 -25.984375 4.953125 -24.3125 4.203125 -22.34375 C 3.460938 -20.382812 3.09375 -18.164062 3.09375 -15.6875 C 3.09375 -13.613281 3.410156 -11.59375 4.046875 -9.625 C 4.691406 -7.664062 5.664062 -5.910156 6.96875 -4.359375 C 8.269531 -2.816406 9.921875 -1.578125 11.921875 -0.640625 C 13.929688 0.285156 16.300781 0.75 19.03125 0.75 C 21.675781 0.75 24.113281 0.285156 26.34375 -0.640625 C 28.570312 -1.578125 30.515625 -2.914062 32.171875 -4.65625 L 30.1875 -6.625 C 29.320312 -5.882812 28.503906 -5.203125 27.734375 -4.578125 C 26.972656 -3.960938 26.195312 -3.445312 25.40625 -3.03125 C 24.625 -2.625 23.804688 -2.304688 22.953125 -2.078125 C 22.109375 -1.847656 21.171875 -1.734375 20.140625 -1.734375 C 18.984375 -1.734375 17.753906 -1.910156 16.453125 -2.265625 C 15.148438 -2.617188 13.941406 -3.25 12.828125 -4.15625 C 11.710938 -5.0625 10.78125 -6.316406 10.03125 -7.921875 C 9.289062 -9.535156 8.921875 -11.601562 8.921875 -14.125 Z M 8.921875 -16.609375 C 8.921875 -18.265625 9.097656 -19.863281 9.453125 -21.40625 C 9.804688 -22.957031 10.34375 -24.332031 11.0625 -25.53125 C 11.789062 -26.726562 12.710938 -27.6875 13.828125 -28.40625 C 14.941406 -29.132812 16.265625 -29.5 17.796875 -29.5 C 20.722656 -29.5 23.003906 -28.351562 24.640625 -26.0625 C 26.273438 -23.769531 27.09375 -20.617188 27.09375 -16.609375 Z M 8.921875 -16.609375 "/></g></g></g><g fill="#000000" fill-opacity="1"><g transform="translate(203.54068, 89.845826)"><g><path d="M 32.484375 -14.125 L 32.484375 -15.4375 C 32.484375 -18.207031 32.085938 -20.601562 31.296875 -22.625 C 30.515625 -24.644531 29.453125 -26.316406 28.109375 -27.640625 C 26.765625 -28.960938 25.203125 -29.953125 23.421875 -30.609375 C 21.648438 -31.273438 19.773438 -31.609375 17.796875 -31.609375 C 15.679688 -31.609375 13.734375 -31.242188 11.953125 -30.515625 C 10.179688 -29.796875 8.632812 -28.742188 7.3125 -27.359375 C 5.988281 -25.984375 4.953125 -24.3125 4.203125 -22.34375 C 3.460938 -20.382812 3.09375 -18.164062 3.09375 -15.6875 C 3.09375 -13.613281 3.410156 -11.59375 4.046875 -9.625 C 4.691406 -7.664062 5.664062 -5.910156 6.96875 -4.359375 C 8.269531 -2.816406 9.921875 -1.578125 11.921875 -0.640625 C 13.929688 0.285156 16.300781 0.75 19.03125 0.75 C 21.675781 0.75 24.113281 0.285156 26.34375 -0.640625 C 28.570312 -1.578125 30.515625 -2.914062 32.171875 -4.65625 L 30.1875 -6.625 C 29.320312 -5.882812 28.503906 -5.203125 27.734375 -4.578125 C 26.972656 -3.960938 26.195312 -3.445312 25.40625 -3.03125 C 24.625 -2.625 23.804688 -2.304688 22.953125 -2.078125 C 22.109375 -1.847656 21.171875 -1.734375 20.140625 -1.734375 C 18.984375 -1.734375 17.753906 -1.910156 16.453125 -2.265625 C 15.148438 -2.617188 13.941406 -3.25 12.828125 -4.15625 C 11.710938 -5.0625 10.78125 -6.316406 10.03125 -7.921875 C 9.289062 -9.535156 8.921875 -11.601562 8.921875 -14.125 Z M 8.921875 -16.609375 C 8.921875 -18.265625 9.097656 -19.863281 9.453125 -21.40625 C 9.804688 -22.957031 10.34375 -24.332031 11.0625 -25.53125 C 11.789062 -26.726562 12.710938 -27.6875 13.828125 -28.40625 C 14.941406 -29.132812 16.265625 -29.5 17.796875 -29.5 C 20.722656 -29.5 23.003906 -28.351562 24.640625 -26.0625 C 26.273438 -23.769531 27.09375 -20.617188 27.09375 -16.609375 Z M 8.921875 -16.609375 "/></g></g></g><g fill="#000000" fill-opacity="1"><g transform="translate(239.11405, 89.845826)"><g/></g></g><g fill="#000000" fill-opacity="1"><g transform="translate(260.805135, 89.845826)"><g><path d="M 32.484375 -43.390625 L 27.21875 -43.390625 L 27.21875 -25.90625 L 26.96875 -25.90625 C 26.550781 -26.976562 26 -27.875 25.3125 -28.59375 C 24.632812 -29.320312 23.859375 -29.910156 22.984375 -30.359375 C 22.117188 -30.816406 21.203125 -31.148438 20.234375 -31.359375 C 19.265625 -31.566406 18.285156 -31.671875 17.296875 -31.671875 C 15.222656 -31.671875 13.316406 -31.285156 11.578125 -30.515625 C 9.847656 -29.753906 8.351562 -28.671875 7.09375 -27.265625 C 5.832031 -25.867188 4.847656 -24.175781 4.140625 -22.1875 C 3.441406 -20.207031 3.09375 -18 3.09375 -15.5625 C 3.09375 -13.082031 3.441406 -10.835938 4.140625 -8.828125 C 4.847656 -6.828125 5.832031 -5.113281 7.09375 -3.6875 C 8.351562 -2.257812 9.847656 -1.160156 11.578125 -0.390625 C 13.316406 0.367188 15.222656 0.75 17.296875 0.75 C 22.171875 0.75 25.394531 -1.171875 26.96875 -5.015625 L 27.21875 -5.015625 L 27.21875 0 L 32.484375 0 Z M 27.21875 -12.390625 C 27.21875 -11.023438 26.988281 -9.734375 26.53125 -8.515625 C 26.070312 -7.296875 25.457031 -6.242188 24.6875 -5.359375 C 23.925781 -4.472656 23.019531 -3.769531 21.96875 -3.25 C 20.914062 -2.738281 19.789062 -2.484375 18.59375 -2.484375 C 17.269531 -2.484375 16.03125 -2.71875 14.875 -3.1875 C 13.71875 -3.664062 12.703125 -4.421875 11.828125 -5.453125 C 10.960938 -6.484375 10.269531 -7.828125 9.75 -9.484375 C 9.238281 -11.140625 8.984375 -13.125 8.984375 -15.4375 C 8.984375 -17.789062 9.238281 -19.789062 9.75 -21.4375 C 10.269531 -23.09375 10.972656 -24.445312 11.859375 -25.5 C 12.753906 -26.5625 13.78125 -27.328125 14.9375 -27.796875 C 16.09375 -28.273438 17.3125 -28.515625 18.59375 -28.515625 C 19.75 -28.515625 20.84375 -28.273438 21.875 -27.796875 C 22.914062 -27.328125 23.828125 -26.625 24.609375 -25.6875 C 25.390625 -24.757812 26.019531 -23.632812 26.5 -22.3125 C 26.976562 -20.988281 27.21875 -19.484375 27.21875 -17.796875 Z M 27.21875 -12.390625 "/></g></g></g><path fill="#000000" d="M 248.378906 24.070312 C 248.378906 25.886719 246.90625 27.359375 245.085938 27.359375 C 243.269531 27.359375 241.796875 25.886719 241.796875 24.070312 C 241.796875 22.253906 243.269531 20.777344 245.085938 20.777344 C 246.90625 20.777344 248.378906 22.253906 248.378906 24.070312 " fill-opacity="1" fill-rule="nonzero"/><g clip-path="url(#ffdc775acf)"><path fill="#000000" d="M 252.480469 16.558594 C 252.480469 16.558594 263.816406 11.074219 272.59375 14.609375 C 272.59375 14.609375 264.304688 3.273438 250.289062 12.78125 C 250.289062 12.78125 256.261719 5.957031 265.035156 6.445312 C 265.035156 6.445312 253.578125 1.691406 246.023438 10.832031 C 238.464844 1.691406 227.007812 6.445312 227.007812 6.445312 C 235.785156 5.957031 241.757812 12.78125 241.757812 12.78125 C 227.738281 3.273438 219.449219 14.609375 219.449219 14.609375 C 228.226562 11.074219 239.5625 16.558594 239.5625 16.558594 C 217.378906 13.148438 218.597656 34.964844 218.597656 34.964844 C 222.496094 25.335938 234.199219 22.53125 234.199219 22.53125 C 219.9375 34.355469 233.832031 47.398438 233.832031 47.398438 C 230.296875 31.796875 237.855469 25.335938 237.855469 25.335938 C 235.175781 30.820312 237.855469 38.257812 237.855469 38.257812 C 237.855469 28.382812 246.023438 22.53125 246.023438 22.53125 C 246.023438 22.53125 254.1875 28.382812 254.1875 38.257812 C 254.1875 38.257812 256.871094 30.820312 254.1875 25.335938 C 254.1875 25.335938 261.746094 31.796875 258.210938 47.398438 C 258.210938 47.398438 272.105469 34.355469 257.84375 22.53125 C 257.84375 22.53125 269.546875 25.335938 273.445312 34.964844 C 273.445312 34.964844 274.664062 13.148438 252.480469 16.558594 " fill-opacity="1" fill-rule="nonzero"/></g><g clip-path="url(#b954c5a84f)"><path fill="#000000" d="M 257.285156 91.054688 L 251.152344 91.054688 C 250.9375 90.410156 250.71875 89.722656 250.492188 88.992188 C 249.960938 87.289062 249.402344 85.367188 248.832031 83.261719 C 248.273438 81.152344 247.695312 78.863281 247.167969 76.421875 C 246.617188 73.988281 246.132812 71.40625 245.65625 68.726562 C 245.21875 66.046875 244.789062 63.273438 244.476562 60.4375 C 244.398438 59.730469 244.304688 59.019531 244.238281 58.304688 C 244.171875 57.59375 244.105469 56.875 244.039062 56.160156 L 243.941406 55.082031 L 243.867188 54 C 243.820312 53.28125 243.769531 52.558594 243.71875 51.835938 C 243.636719 50.394531 243.59375 48.949219 243.527344 47.511719 C 243.511719 46.070312 243.476562 44.640625 243.476562 43.21875 C 243.488281 42.511719 243.496094 41.800781 243.507812 41.097656 C 243.519531 40.394531 243.515625 39.695312 243.554688 39 C 243.585938 38.304688 243.617188 37.613281 243.644531 36.929688 C 243.675781 36.242188 243.699219 35.558594 243.757812 34.886719 C 243.804688 34.210938 243.859375 33.542969 243.90625 32.882812 C 243.957031 32.21875 243.996094 31.566406 244.074219 30.921875 C 244.210938 29.683594 244.328125 28.476562 244.472656 27.300781 C 244.476562 27.246094 244.484375 27.191406 244.492188 27.136719 C 244.546875 26.734375 244.601562 26.335938 244.660156 25.9375 C 245.128906 25.871094 245.582031 25.757812 246.019531 25.609375 C 245.980469 26.152344 245.9375 26.703125 245.898438 27.261719 L 245.898438 27.265625 C 245.828125 28.488281 245.792969 29.742188 245.738281 31.023438 C 245.699219 31.664062 245.703125 32.3125 245.699219 32.964844 C 245.695312 33.621094 245.691406 34.28125 245.6875 34.949219 C 245.671875 35.609375 245.691406 36.285156 245.707031 36.960938 C 245.722656 37.632812 245.738281 38.3125 245.757812 39 C 245.761719 39.683594 245.808594 40.371094 245.84375 41.0625 C 245.882812 41.75 245.917969 42.445312 245.953125 43.144531 C 246.042969 44.535156 246.175781 45.9375 246.285156 47.34375 C 246.445312 48.746094 246.578125 50.15625 246.757812 51.5625 C 246.851562 52.261719 246.945312 52.960938 247.039062 53.664062 L 247.183594 54.710938 L 247.347656 55.757812 C 247.460938 56.453125 247.570312 57.148438 247.683594 57.839844 C 247.792969 58.53125 247.929688 59.21875 248.054688 59.902344 C 248.539062 62.644531 249.140625 65.316406 249.738281 67.894531 C 250.375 70.464844 251.011719 72.941406 251.703125 75.261719 C 252.371094 77.589844 253.078125 79.769531 253.753906 81.765625 C 254.4375 83.761719 255.101562 85.578125 255.714844 87.171875 C 256.292969 88.667969 256.824219 89.976562 257.285156 91.054688 " fill-opacity="1" fill-rule="nonzero"/></g></svg>